<mxfile host="app.diagrams.net" modified="2023-11-04T07:17:15.570Z" agent="Mozilla/5.0 (Windows NT 10.0; Win64; x64) AppleWebKit/537.36 (KHTML, like Gecko) Chrome/118.0.0.0 Safari/537.36 Edg/118.0.2088.76" etag="rNCRrqQsTgTEPO9WucLI" version="22.0.8" type="device">
  <diagram name="Page-1" id="XsmlOY6kR-lBpd7HdYtv">
    <mxGraphModel dx="1845" dy="612" grid="1" gridSize="10" guides="1" tooltips="1" connect="1" arrows="1" fold="1" page="1" pageScale="1" pageWidth="850" pageHeight="1100" math="0" shadow="0">
      <root>
        <mxCell id="0" />
        <mxCell id="1" parent="0" />
        <mxCell id="Cdf9Aqhl6wcaHEXVbA-i-1" value="Media" style="rounded=0;whiteSpace=wrap;html=1;" parent="1" vertex="1">
          <mxGeometry x="-200" y="160" width="100" height="50" as="geometry" />
        </mxCell>
        <mxCell id="Mia3lXKXS7-BlFBXMKsJ-3" style="rounded=0;orthogonalLoop=1;jettySize=auto;html=1;exitX=0;exitY=0;exitDx=0;exitDy=0;entryX=0.5;entryY=1;entryDx=0;entryDy=0;endArrow=none;endFill=0;" parent="1" source="Cdf9Aqhl6wcaHEXVbA-i-3" target="Mia3lXKXS7-BlFBXMKsJ-2" edge="1">
          <mxGeometry relative="1" as="geometry" />
        </mxCell>
        <mxCell id="Cdf9Aqhl6wcaHEXVbA-i-3" value="Order" style="rounded=0;whiteSpace=wrap;html=1;" parent="1" vertex="1">
          <mxGeometry x="235" y="220" width="100" height="50" as="geometry" />
        </mxCell>
        <mxCell id="Cdf9Aqhl6wcaHEXVbA-i-6" style="rounded=0;orthogonalLoop=1;jettySize=auto;html=1;exitX=0;exitY=0.5;exitDx=0;exitDy=0;entryX=1;entryY=0.5;entryDx=0;entryDy=0;endArrow=ERoneToMany;endFill=0;" parent="1" source="Cdf9Aqhl6wcaHEXVbA-i-5" target="Cdf9Aqhl6wcaHEXVbA-i-1" edge="1">
          <mxGeometry relative="1" as="geometry" />
        </mxCell>
        <mxCell id="Cdf9Aqhl6wcaHEXVbA-i-7" style="rounded=0;orthogonalLoop=1;jettySize=auto;html=1;exitX=1;exitY=0.5;exitDx=0;exitDy=0;entryX=0;entryY=0.25;entryDx=0;entryDy=0;endArrow=ERoneToMany;endFill=0;" parent="1" source="Cdf9Aqhl6wcaHEXVbA-i-5" target="Cdf9Aqhl6wcaHEXVbA-i-3" edge="1">
          <mxGeometry relative="1" as="geometry" />
        </mxCell>
        <mxCell id="Cdf9Aqhl6wcaHEXVbA-i-5" value="has" style="rhombus;whiteSpace=wrap;html=1;" parent="1" vertex="1">
          <mxGeometry x="5" y="180" width="80" height="50" as="geometry" />
        </mxCell>
        <mxCell id="Cdf9Aqhl6wcaHEXVbA-i-14" style="rounded=0;orthogonalLoop=1;jettySize=auto;html=1;exitX=0;exitY=0.75;exitDx=0;exitDy=0;entryX=1;entryY=0;entryDx=0;entryDy=0;endArrow=none;endFill=0;" parent="1" source="Cdf9Aqhl6wcaHEXVbA-i-9" target="Cdf9Aqhl6wcaHEXVbA-i-13" edge="1">
          <mxGeometry relative="1" as="geometry" />
        </mxCell>
        <mxCell id="Cdf9Aqhl6wcaHEXVbA-i-9" value="DeliveryInfo" style="rounded=0;whiteSpace=wrap;html=1;" parent="1" vertex="1">
          <mxGeometry x="35" y="360" width="100" height="50" as="geometry" />
        </mxCell>
        <mxCell id="Cdf9Aqhl6wcaHEXVbA-i-11" style="rounded=0;orthogonalLoop=1;jettySize=auto;html=1;exitX=0;exitY=1;exitDx=0;exitDy=0;entryX=0.5;entryY=0;entryDx=0;entryDy=0;endArrow=ERone;endFill=0;" parent="1" source="Cdf9Aqhl6wcaHEXVbA-i-10" target="Cdf9Aqhl6wcaHEXVbA-i-9" edge="1">
          <mxGeometry relative="1" as="geometry" />
        </mxCell>
        <mxCell id="Cdf9Aqhl6wcaHEXVbA-i-12" style="rounded=0;orthogonalLoop=1;jettySize=auto;html=1;exitX=1;exitY=0;exitDx=0;exitDy=0;entryX=0;entryY=0.5;entryDx=0;entryDy=0;endArrow=ERzeroToMany;endFill=0;" parent="1" source="Cdf9Aqhl6wcaHEXVbA-i-10" target="Cdf9Aqhl6wcaHEXVbA-i-3" edge="1">
          <mxGeometry relative="1" as="geometry" />
        </mxCell>
        <mxCell id="Cdf9Aqhl6wcaHEXVbA-i-10" value="has" style="rhombus;whiteSpace=wrap;html=1;" parent="1" vertex="1">
          <mxGeometry x="135" y="270" width="60" height="45" as="geometry" />
        </mxCell>
        <mxCell id="Cdf9Aqhl6wcaHEXVbA-i-13" value="Email" style="ellipse;whiteSpace=wrap;html=1;" parent="1" vertex="1">
          <mxGeometry x="-195" y="490" width="90" height="50" as="geometry" />
        </mxCell>
        <mxCell id="Cdf9Aqhl6wcaHEXVbA-i-16" style="rounded=0;orthogonalLoop=1;jettySize=auto;html=1;exitX=1;exitY=0.5;exitDx=0;exitDy=0;endArrow=none;endFill=0;entryX=0;entryY=0.5;entryDx=0;entryDy=0;" parent="1" source="Cdf9Aqhl6wcaHEXVbA-i-15" target="Cdf9Aqhl6wcaHEXVbA-i-9" edge="1">
          <mxGeometry relative="1" as="geometry">
            <mxPoint x="35" y="375" as="targetPoint" />
          </mxGeometry>
        </mxCell>
        <mxCell id="Cdf9Aqhl6wcaHEXVbA-i-15" value="PhoneNumber" style="ellipse;whiteSpace=wrap;html=1;" parent="1" vertex="1">
          <mxGeometry x="-195" y="360" width="90" height="50" as="geometry" />
        </mxCell>
        <mxCell id="Cdf9Aqhl6wcaHEXVbA-i-17" value="Name" style="ellipse;whiteSpace=wrap;html=1;" parent="1" vertex="1">
          <mxGeometry x="-75" y="490" width="90" height="50" as="geometry" />
        </mxCell>
        <mxCell id="Cdf9Aqhl6wcaHEXVbA-i-18" style="rounded=0;orthogonalLoop=1;jettySize=auto;html=1;exitX=0;exitY=1;exitDx=0;exitDy=0;entryX=0.778;entryY=0.04;entryDx=0;entryDy=0;entryPerimeter=0;endArrow=none;endFill=0;" parent="1" source="Cdf9Aqhl6wcaHEXVbA-i-9" target="Cdf9Aqhl6wcaHEXVbA-i-17" edge="1">
          <mxGeometry relative="1" as="geometry" />
        </mxCell>
        <mxCell id="Cdf9Aqhl6wcaHEXVbA-i-20" value="Address" style="ellipse;whiteSpace=wrap;html=1;" parent="1" vertex="1">
          <mxGeometry x="40" y="490" width="90" height="50" as="geometry" />
        </mxCell>
        <mxCell id="Cdf9Aqhl6wcaHEXVbA-i-21" style="rounded=0;orthogonalLoop=1;jettySize=auto;html=1;exitX=0.5;exitY=0;exitDx=0;exitDy=0;entryX=0.5;entryY=1;entryDx=0;entryDy=0;endArrow=none;endFill=0;" parent="1" source="Cdf9Aqhl6wcaHEXVbA-i-20" target="Cdf9Aqhl6wcaHEXVbA-i-9" edge="1">
          <mxGeometry relative="1" as="geometry" />
        </mxCell>
        <mxCell id="Mia3lXKXS7-BlFBXMKsJ-6" style="rounded=0;orthogonalLoop=1;jettySize=auto;html=1;exitX=0;exitY=1;exitDx=0;exitDy=0;entryX=0.5;entryY=0;entryDx=0;entryDy=0;endArrow=none;endFill=0;" parent="1" source="Cdf9Aqhl6wcaHEXVbA-i-22" target="Mia3lXKXS7-BlFBXMKsJ-4" edge="1">
          <mxGeometry relative="1" as="geometry" />
        </mxCell>
        <mxCell id="Cdf9Aqhl6wcaHEXVbA-i-22" value="Invoice" style="rounded=0;whiteSpace=wrap;html=1;" parent="1" vertex="1">
          <mxGeometry x="475" y="370" width="100" height="50" as="geometry" />
        </mxCell>
        <mxCell id="Cdf9Aqhl6wcaHEXVbA-i-24" style="rounded=0;orthogonalLoop=1;jettySize=auto;html=1;exitX=0.5;exitY=1;exitDx=0;exitDy=0;entryX=0.5;entryY=1;entryDx=0;entryDy=0;endArrow=ERone;endFill=0;" parent="1" source="Cdf9Aqhl6wcaHEXVbA-i-23" target="Cdf9Aqhl6wcaHEXVbA-i-3" edge="1">
          <mxGeometry relative="1" as="geometry" />
        </mxCell>
        <mxCell id="Cdf9Aqhl6wcaHEXVbA-i-25" style="rounded=0;orthogonalLoop=1;jettySize=auto;html=1;exitX=1;exitY=0.5;exitDx=0;exitDy=0;entryX=0;entryY=0.5;entryDx=0;entryDy=0;endArrow=ERone;endFill=0;" parent="1" source="Cdf9Aqhl6wcaHEXVbA-i-23" target="Cdf9Aqhl6wcaHEXVbA-i-22" edge="1">
          <mxGeometry relative="1" as="geometry" />
        </mxCell>
        <mxCell id="Cdf9Aqhl6wcaHEXVbA-i-23" value="has" style="rhombus;whiteSpace=wrap;html=1;" parent="1" vertex="1">
          <mxGeometry x="245" y="370" width="80" height="50" as="geometry" />
        </mxCell>
        <mxCell id="Cdf9Aqhl6wcaHEXVbA-i-41" style="rounded=0;orthogonalLoop=1;jettySize=auto;html=1;exitX=0.75;exitY=1;exitDx=0;exitDy=0;entryX=0.5;entryY=0;entryDx=0;entryDy=0;endArrow=none;endFill=0;" parent="1" source="Cdf9Aqhl6wcaHEXVbA-i-29" target="Cdf9Aqhl6wcaHEXVbA-i-40" edge="1">
          <mxGeometry relative="1" as="geometry" />
        </mxCell>
        <mxCell id="Cdf9Aqhl6wcaHEXVbA-i-29" value="Payment Transaction" style="rounded=0;whiteSpace=wrap;html=1;" parent="1" vertex="1">
          <mxGeometry x="665" y="250" width="100" height="50" as="geometry" />
        </mxCell>
        <mxCell id="Cdf9Aqhl6wcaHEXVbA-i-35" style="rounded=0;orthogonalLoop=1;jettySize=auto;html=1;exitX=0;exitY=0.5;exitDx=0;exitDy=0;endArrow=ERone;endFill=0;" parent="1" source="Cdf9Aqhl6wcaHEXVbA-i-30" target="Cdf9Aqhl6wcaHEXVbA-i-22" edge="1">
          <mxGeometry relative="1" as="geometry" />
        </mxCell>
        <mxCell id="Cdf9Aqhl6wcaHEXVbA-i-36" style="edgeStyle=orthogonalEdgeStyle;rounded=0;orthogonalLoop=1;jettySize=auto;html=1;entryX=0;entryY=0.5;entryDx=0;entryDy=0;endArrow=ERone;endFill=0;" parent="1" source="Cdf9Aqhl6wcaHEXVbA-i-30" target="Cdf9Aqhl6wcaHEXVbA-i-29" edge="1">
          <mxGeometry relative="1" as="geometry" />
        </mxCell>
        <mxCell id="Cdf9Aqhl6wcaHEXVbA-i-30" value="has" style="rhombus;whiteSpace=wrap;html=1;" parent="1" vertex="1">
          <mxGeometry x="525" y="250" width="80" height="50" as="geometry" />
        </mxCell>
        <mxCell id="Cdf9Aqhl6wcaHEXVbA-i-40" value="Content" style="ellipse;whiteSpace=wrap;html=1;" parent="1" vertex="1">
          <mxGeometry x="645" y="100" width="90" height="50" as="geometry" />
        </mxCell>
        <mxCell id="Cdf9Aqhl6wcaHEXVbA-i-44" value="Time" style="ellipse;whiteSpace=wrap;html=1;" parent="1" vertex="1">
          <mxGeometry x="435" y="150" width="90" height="50" as="geometry" />
        </mxCell>
        <mxCell id="Cdf9Aqhl6wcaHEXVbA-i-45" value="Result" style="ellipse;whiteSpace=wrap;html=1;" parent="1" vertex="1">
          <mxGeometry x="545" y="120" width="90" height="50" as="geometry" />
        </mxCell>
        <mxCell id="Cdf9Aqhl6wcaHEXVbA-i-46" style="rounded=0;orthogonalLoop=1;jettySize=auto;html=1;exitX=0.25;exitY=0;exitDx=0;exitDy=0;entryX=0.5;entryY=1;entryDx=0;entryDy=0;endArrow=none;endFill=0;" parent="1" source="Cdf9Aqhl6wcaHEXVbA-i-29" target="Cdf9Aqhl6wcaHEXVbA-i-45" edge="1">
          <mxGeometry relative="1" as="geometry" />
        </mxCell>
        <mxCell id="Cdf9Aqhl6wcaHEXVbA-i-47" style="rounded=0;orthogonalLoop=1;jettySize=auto;html=1;exitX=1;exitY=1;exitDx=0;exitDy=0;entryX=0;entryY=0;entryDx=0;entryDy=0;endArrow=none;endFill=0;" parent="1" source="Cdf9Aqhl6wcaHEXVbA-i-44" target="Cdf9Aqhl6wcaHEXVbA-i-29" edge="1">
          <mxGeometry relative="1" as="geometry" />
        </mxCell>
        <mxCell id="Cdf9Aqhl6wcaHEXVbA-i-55" value="Card" style="rounded=0;whiteSpace=wrap;html=1;" parent="1" vertex="1">
          <mxGeometry x="1015" y="250" width="100" height="50" as="geometry" />
        </mxCell>
        <mxCell id="Cdf9Aqhl6wcaHEXVbA-i-57" style="rounded=0;orthogonalLoop=1;jettySize=auto;html=1;exitX=0;exitY=0.5;exitDx=0;exitDy=0;entryX=1;entryY=0.5;entryDx=0;entryDy=0;endArrow=ERone;endFill=0;" parent="1" source="Cdf9Aqhl6wcaHEXVbA-i-56" target="Cdf9Aqhl6wcaHEXVbA-i-29" edge="1">
          <mxGeometry relative="1" as="geometry" />
        </mxCell>
        <mxCell id="Cdf9Aqhl6wcaHEXVbA-i-58" style="rounded=0;orthogonalLoop=1;jettySize=auto;html=1;exitX=1;exitY=0.5;exitDx=0;exitDy=0;entryX=0;entryY=0.5;entryDx=0;entryDy=0;endArrow=ERone;endFill=0;" parent="1" source="Cdf9Aqhl6wcaHEXVbA-i-56" target="Cdf9Aqhl6wcaHEXVbA-i-55" edge="1">
          <mxGeometry relative="1" as="geometry" />
        </mxCell>
        <mxCell id="Cdf9Aqhl6wcaHEXVbA-i-56" value="has" style="rhombus;whiteSpace=wrap;html=1;" parent="1" vertex="1">
          <mxGeometry x="855" y="250" width="80" height="50" as="geometry" />
        </mxCell>
        <mxCell id="Cdf9Aqhl6wcaHEXVbA-i-59" value="CardNumber" style="ellipse;whiteSpace=wrap;html=1;" parent="1" vertex="1">
          <mxGeometry x="1175" y="220" width="90" height="50" as="geometry" />
        </mxCell>
        <mxCell id="Cdf9Aqhl6wcaHEXVbA-i-60" value="ExpiredDate" style="ellipse;whiteSpace=wrap;html=1;" parent="1" vertex="1">
          <mxGeometry x="1175" y="280" width="90" height="50" as="geometry" />
        </mxCell>
        <mxCell id="Cdf9Aqhl6wcaHEXVbA-i-61" value="CardHolderName" style="ellipse;whiteSpace=wrap;html=1;" parent="1" vertex="1">
          <mxGeometry x="1085" y="360" width="90" height="50" as="geometry" />
        </mxCell>
        <mxCell id="Cdf9Aqhl6wcaHEXVbA-i-62" style="rounded=0;orthogonalLoop=1;jettySize=auto;html=1;exitX=1;exitY=0.25;exitDx=0;exitDy=0;entryX=0;entryY=0.5;entryDx=0;entryDy=0;endArrow=none;endFill=0;" parent="1" source="Cdf9Aqhl6wcaHEXVbA-i-55" target="Cdf9Aqhl6wcaHEXVbA-i-59" edge="1">
          <mxGeometry relative="1" as="geometry" />
        </mxCell>
        <mxCell id="Cdf9Aqhl6wcaHEXVbA-i-63" style="rounded=0;orthogonalLoop=1;jettySize=auto;html=1;exitX=1;exitY=0.75;exitDx=0;exitDy=0;entryX=0;entryY=0.5;entryDx=0;entryDy=0;endArrow=none;endFill=0;" parent="1" source="Cdf9Aqhl6wcaHEXVbA-i-55" target="Cdf9Aqhl6wcaHEXVbA-i-60" edge="1">
          <mxGeometry relative="1" as="geometry" />
        </mxCell>
        <mxCell id="Cdf9Aqhl6wcaHEXVbA-i-64" style="rounded=0;orthogonalLoop=1;jettySize=auto;html=1;exitX=0.75;exitY=1;exitDx=0;exitDy=0;entryX=0.356;entryY=-0.012;entryDx=0;entryDy=0;entryPerimeter=0;endArrow=none;endFill=0;" parent="1" source="Cdf9Aqhl6wcaHEXVbA-i-55" target="Cdf9Aqhl6wcaHEXVbA-i-61" edge="1">
          <mxGeometry relative="1" as="geometry" />
        </mxCell>
        <mxCell id="Cdf9Aqhl6wcaHEXVbA-i-65" value="CVV" style="ellipse;whiteSpace=wrap;html=1;" parent="1" vertex="1">
          <mxGeometry x="965" y="360" width="90" height="50" as="geometry" />
        </mxCell>
        <mxCell id="Cdf9Aqhl6wcaHEXVbA-i-66" style="rounded=0;orthogonalLoop=1;jettySize=auto;html=1;exitX=0.25;exitY=1;exitDx=0;exitDy=0;entryX=0.5;entryY=0;entryDx=0;entryDy=0;endArrow=none;endFill=0;" parent="1" source="Cdf9Aqhl6wcaHEXVbA-i-55" target="Cdf9Aqhl6wcaHEXVbA-i-65" edge="1">
          <mxGeometry relative="1" as="geometry" />
        </mxCell>
        <mxCell id="Mia3lXKXS7-BlFBXMKsJ-2" value="Shipping Fee" style="ellipse;whiteSpace=wrap;html=1;" parent="1" vertex="1">
          <mxGeometry x="115" y="110" width="90" height="50" as="geometry" />
        </mxCell>
        <mxCell id="Mia3lXKXS7-BlFBXMKsJ-4" value="Total" style="ellipse;whiteSpace=wrap;html=1;" parent="1" vertex="1">
          <mxGeometry x="365" y="500" width="90" height="50" as="geometry" />
        </mxCell>
        <mxCell id="EZcsUwIyI5bGRL7Xxgu5-3" style="rounded=0;orthogonalLoop=1;jettySize=auto;html=1;exitX=0.5;exitY=0;exitDx=0;exitDy=0;entryX=0.5;entryY=1;entryDx=0;entryDy=0;endArrow=none;endFill=0;" edge="1" parent="1" source="EZcsUwIyI5bGRL7Xxgu5-2" target="Cdf9Aqhl6wcaHEXVbA-i-22">
          <mxGeometry relative="1" as="geometry" />
        </mxCell>
        <mxCell id="EZcsUwIyI5bGRL7Xxgu5-2" value="Subtotal" style="ellipse;whiteSpace=wrap;html=1;" vertex="1" parent="1">
          <mxGeometry x="480" y="500" width="90" height="50" as="geometry" />
        </mxCell>
        <mxCell id="EZcsUwIyI5bGRL7Xxgu5-5" style="rounded=0;orthogonalLoop=1;jettySize=auto;html=1;exitX=0.5;exitY=0;exitDx=0;exitDy=0;entryX=1;entryY=1;entryDx=0;entryDy=0;endArrow=none;endFill=0;" edge="1" parent="1" source="EZcsUwIyI5bGRL7Xxgu5-4" target="Cdf9Aqhl6wcaHEXVbA-i-22">
          <mxGeometry relative="1" as="geometry" />
        </mxCell>
        <mxCell id="EZcsUwIyI5bGRL7Xxgu5-4" value="VAT" style="ellipse;whiteSpace=wrap;html=1;" vertex="1" parent="1">
          <mxGeometry x="595" y="500" width="90" height="50" as="geometry" />
        </mxCell>
      </root>
    </mxGraphModel>
  </diagram>
</mxfile>
